<mxfile host="app.diagrams.net" agent="Mozilla/5.0 (Windows NT 10.0; Win64; x64) AppleWebKit/537.36 (KHTML, like Gecko) Chrome/138.0.0.0 Safari/537.36 Edg/138.0.0.0" version="28.0.7">
  <diagram name="类型系统" id="ug6RmWASBaLTkhD_SgKy">
    <mxGraphModel dx="767" dy="375" grid="1" gridSize="10" guides="1" tooltips="1" connect="1" arrows="1" fold="1" page="1" pageScale="1" pageWidth="827" pageHeight="1169" math="0" shadow="0">
      <root>
        <mxCell id="0" />
        <mxCell id="1" parent="0" />
        <mxCell id="feVIgo86ewcHDWBZhkFQ-5" value="&lt;p style=&quot;margin:0px;margin-top:4px;text-align:center;&quot;&gt;&lt;b&gt;Lplus&lt;/b&gt;&lt;/p&gt;&lt;hr size=&quot;1&quot; style=&quot;border-style:solid;&quot;&gt;&lt;p style=&quot;margin:0px;margin-left:4px;&quot;&gt;+ field: Type&lt;/p&gt;&lt;hr size=&quot;1&quot; style=&quot;border-style:solid;&quot;&gt;&lt;p style=&quot;margin:0px;margin-left:4px;&quot;&gt;+&amp;nbsp;&lt;span style=&quot;font-family: Consolas, &amp;quot;Courier New&amp;quot;, monospace; font-size: 14px; white-space: pre; color: rgb(239, 176, 128);&quot;&gt;Class&lt;/span&gt;&lt;span style=&quot;background-color: rgb(10, 10, 10); color: rgb(216, 222, 233); font-family: Consolas, &amp;quot;Courier New&amp;quot;, monospace; font-size: 14px; white-space: pre;&quot;&gt; (&lt;/span&gt;&lt;span style=&quot;font-family: Consolas, &amp;quot;Courier New&amp;quot;, monospace; font-size: 14px; white-space: pre; color: rgb(214, 214, 221); font-style: italic;&quot;&gt;typeNameOrForwardDeclare&lt;/span&gt;&lt;span style=&quot;background-color: rgb(10, 10, 10); color: rgb(216, 222, 233); font-family: Consolas, &amp;quot;Courier New&amp;quot;, monospace; font-size: 14px; white-space: pre;&quot;&gt;)&lt;/span&gt;&lt;span style=&quot;background-color: transparent; color: light-dark(rgb(0, 0, 0), rgb(255, 255, 255));&quot;&gt;: 创建新类，新类继承于System.Object&lt;br&gt;+&lt;/span&gt;&lt;span style=&quot;font-family: Consolas, &amp;quot;Courier New&amp;quot;, monospace; font-size: 14px; white-space: pre; color: rgb(239, 176, 128);&quot;&gt;Extend&lt;/span&gt;&lt;span style=&quot;background-color: rgb(10, 10, 10); color: rgb(216, 222, 233); font-family: Consolas, &amp;quot;Courier New&amp;quot;, monospace; font-size: 14px; white-space: pre;&quot;&gt; (&lt;/span&gt;&lt;span style=&quot;font-family: Consolas, &amp;quot;Courier New&amp;quot;, monospace; font-size: 14px; white-space: pre; color: rgb(214, 214, 221); font-style: italic;&quot;&gt;baseTypeTable&lt;/span&gt;&lt;span style=&quot;background-color: rgb(10, 10, 10); color: rgb(216, 222, 233); font-family: Consolas, &amp;quot;Courier New&amp;quot;, monospace; font-size: 14px; white-space: pre;&quot;&gt;, &lt;/span&gt;&lt;span style=&quot;font-family: Consolas, &amp;quot;Courier New&amp;quot;, monospace; font-size: 14px; white-space: pre; color: rgb(214, 214, 221); font-style: italic;&quot;&gt;typeNameOrForwardDeclare&lt;/span&gt;&lt;span style=&quot;background-color: rgb(10, 10, 10); color: rgb(216, 222, 233); font-family: Consolas, &amp;quot;Courier New&amp;quot;, monospace; font-size: 14px; white-space: pre;&quot;&gt;)：创建派生类&lt;/span&gt;&lt;/p&gt;&lt;p style=&quot;margin:0px;margin-left:4px;&quot;&gt;&lt;span style=&quot;background-color: rgb(10, 10, 10); color: rgb(216, 222, 233); font-family: Consolas, &amp;quot;Courier New&amp;quot;, monospace; font-size: 14px; white-space: pre;&quot;&gt;+&lt;/span&gt;&lt;span style=&quot;font-family: Consolas, &amp;quot;Courier New&amp;quot;, monospace; font-size: 14px; white-space: pre; color: rgb(239, 176, 128);&quot;&gt;Interface&lt;/span&gt;&lt;span style=&quot;background-color: rgb(10, 10, 10); color: rgb(216, 222, 233); font-family: Consolas, &amp;quot;Courier New&amp;quot;, monospace; font-size: 14px; white-space: pre;&quot;&gt; (&lt;/span&gt;&lt;span style=&quot;font-family: Consolas, &amp;quot;Courier New&amp;quot;, monospace; font-size: 14px; white-space: pre; color: rgb(214, 214, 221); font-style: italic;&quot;&gt;typeNameOrForwardDeclare&lt;/span&gt;&lt;span style=&quot;background-color: rgb(10, 10, 10); color: rgb(216, 222, 233); font-family: Consolas, &amp;quot;Courier New&amp;quot;, monospace; font-size: 14px; white-space: pre;&quot;&gt;)：创建接口&lt;/span&gt;&lt;/p&gt;&lt;p style=&quot;margin:0px;margin-left:4px;&quot;&gt;&lt;span style=&quot;background-color: rgb(10, 10, 10); color: rgb(216, 222, 233); font-family: Consolas, &amp;quot;Courier New&amp;quot;, monospace; font-size: 14px; white-space: pre;&quot;&gt;+&lt;/span&gt;&lt;span style=&quot;font-family: Consolas, &amp;quot;Courier New&amp;quot;, monospace; font-size: 14px; white-space: pre; color: rgb(239, 176, 128);&quot;&gt;ForwardDeclare&lt;/span&gt;&lt;span style=&quot;background-color: rgb(10, 10, 10); color: rgb(216, 222, 233); font-family: Consolas, &amp;quot;Courier New&amp;quot;, monospace; font-size: 14px; white-space: pre;&quot;&gt; (&lt;/span&gt;&lt;span style=&quot;font-family: Consolas, &amp;quot;Courier New&amp;quot;, monospace; font-size: 14px; white-space: pre; color: rgb(214, 214, 221); font-style: italic;&quot;&gt;typeName&lt;/span&gt;&lt;span style=&quot;background-color: rgb(10, 10, 10); color: rgb(216, 222, 233); font-family: Consolas, &amp;quot;Courier New&amp;quot;, monospace; font-size: 14px; white-space: pre;&quot;&gt;)：创建前向声明，解决循环依赖&lt;/span&gt;&lt;/p&gt;&lt;p style=&quot;margin:0px;margin-left:4px;&quot;&gt;&lt;span style=&quot;background-color: rgb(10, 10, 10); color: rgb(216, 222, 233); font-family: Consolas, &amp;quot;Courier New&amp;quot;, monospace; font-size: 14px; white-space: pre;&quot;&gt;+&lt;/span&gt;&lt;span style=&quot;font-family: Consolas, &amp;quot;Courier New&amp;quot;, monospace; font-size: 14px; white-space: pre; color: rgb(239, 176, 128);&quot;&gt;is&lt;/span&gt;&lt;span style=&quot;background-color: rgb(10, 10, 10); color: rgb(216, 222, 233); font-family: Consolas, &amp;quot;Courier New&amp;quot;, monospace; font-size: 14px; white-space: pre;&quot;&gt; (&lt;/span&gt;&lt;span style=&quot;font-family: Consolas, &amp;quot;Courier New&amp;quot;, monospace; font-size: 14px; white-space: pre; color: rgb(214, 214, 221); font-style: italic;&quot;&gt;obj&lt;/span&gt;&lt;span style=&quot;background-color: rgb(10, 10, 10); color: rgb(216, 222, 233); font-family: Consolas, &amp;quot;Courier New&amp;quot;, monospace; font-size: 14px; white-space: pre;&quot;&gt;, &lt;/span&gt;&lt;span style=&quot;font-family: Consolas, &amp;quot;Courier New&amp;quot;, monospace; font-size: 14px; white-space: pre; color: rgb(214, 214, 221); font-style: italic;&quot;&gt;typeTable&lt;/span&gt;&lt;span style=&quot;background-color: rgb(10, 10, 10); color: rgb(216, 222, 233); font-family: Consolas, &amp;quot;Courier New&amp;quot;, monospace; font-size: 14px; white-space: pre;&quot;&gt;)：类型检查，判断对象是否是指定类型&lt;/span&gt;&lt;/p&gt;&lt;p style=&quot;margin:0px;margin-left:4px;&quot;&gt;&lt;span style=&quot;background-color: rgb(10, 10, 10); color: rgb(216, 222, 233); font-family: Consolas, &amp;quot;Courier New&amp;quot;, monospace; font-size: 14px; white-space: pre;&quot;&gt;+&lt;/span&gt;&lt;span style=&quot;font-family: Consolas, &amp;quot;Courier New&amp;quot;, monospace; font-size: 14px; white-space: pre; color: rgb(239, 176, 128);&quot;&gt;typeof&lt;/span&gt;&lt;span style=&quot;background-color: rgb(10, 10, 10); color: rgb(216, 222, 233); font-family: Consolas, &amp;quot;Courier New&amp;quot;, monospace; font-size: 14px; white-space: pre;&quot;&gt; (&lt;/span&gt;&lt;span style=&quot;font-family: Consolas, &amp;quot;Courier New&amp;quot;, monospace; font-size: 14px; white-space: pre; color: rgb(214, 214, 221); font-style: italic;&quot;&gt;typeTable&lt;/span&gt;&lt;span style=&quot;background-color: rgb(10, 10, 10); color: rgb(216, 222, 233); font-family: Consolas, &amp;quot;Courier New&amp;quot;, monospace; font-size: 14px; white-space: pre;&quot;&gt;)：获取类型信息&lt;/span&gt;&lt;/p&gt;&lt;p style=&quot;margin:0px;margin-left:4px;&quot;&gt;&lt;span style=&quot;background-color: rgb(10, 10, 10); color: rgb(216, 222, 233); font-family: Consolas, &amp;quot;Courier New&amp;quot;, monospace; font-size: 14px; white-space: pre;&quot;&gt;+&lt;/span&gt;&lt;span style=&quot;font-family: Consolas, &amp;quot;Courier New&amp;quot;, monospace; font-size: 14px; white-space: pre; color: rgb(239, 176, 128);&quot;&gt;reload&lt;/span&gt;&lt;span style=&quot;background-color: rgb(10, 10, 10); color: rgb(216, 222, 233); font-family: Consolas, &amp;quot;Courier New&amp;quot;, monospace; font-size: 14px; white-space: pre;&quot;&gt;(&lt;/span&gt;&lt;span style=&quot;font-family: Consolas, &amp;quot;Courier New&amp;quot;, monospace; font-size: 14px; white-space: pre; color: rgb(214, 214, 221); font-style: italic;&quot;&gt;modname&lt;/span&gt;&lt;span style=&quot;background-color: rgb(10, 10, 10); color: rgb(216, 222, 233); font-family: Consolas, &amp;quot;Courier New&amp;quot;, monospace; font-size: 14px; white-space: pre;&quot;&gt;)：热重载&lt;/span&gt;&lt;/p&gt;" style="verticalAlign=top;align=left;overflow=fill;html=1;whiteSpace=wrap;" vertex="1" parent="1">
          <mxGeometry x="130" y="100" width="500" height="190" as="geometry" />
        </mxCell>
        <mxCell id="feVIgo86ewcHDWBZhkFQ-6" value="classDiagram&#xa;    class Lplus {&#xa;        +Class(typeName)&#xa;        +Extend(baseType, typeName)&#xa;        +Interface(typeName)&#xa;        +ForwardDeclare(typeName)&#xa;        +is(obj, typeTable)&#xa;        +typeof(typeTable)&#xa;        +isObject(obj)&#xa;        +reload(modname)&#xa;    }&#xa;    &#xa;    class System_Object {&#xa;        +getTypeTable()&#xa;        +getType()&#xa;        +is(typeTable)&#xa;        +as(typeTable)&#xa;        +cast(typeTable)&#xa;        +toString()&#xa;        +tryget(memberName)&#xa;    }&#xa;    &#xa;    class System_Type {&#xa;        +fromTypeTable(typeTable)&#xa;        +getName()&#xa;        +getBaseType()&#xa;        +getInterfaces()&#xa;    }&#xa;    &#xa;    Lplus --&gt; System_Object&#xa;    Lplus --&gt; System_Type&#xa;    System_Object --&gt; System_Type" style="text;whiteSpace=wrap;" vertex="1" parent="1">
          <mxGeometry x="740" y="60" width="230" height="480" as="geometry" />
        </mxCell>
        <mxCell id="feVIgo86ewcHDWBZhkFQ-7" value="&lt;p style=&quot;margin:0px;margin-top:4px;text-align:center;&quot;&gt;&lt;span style=&quot;text-align: left; scrollbar-color: var(--vscode-scrollbarSlider-background,#424242) var(--vscode-editor-background,#1e1e1e); color: rgb(216, 222, 233); font-family: &amp;quot;Segoe WPC&amp;quot;, &amp;quot;Segoe UI&amp;quot;, sans-serif; font-size: 13px; font-weight: 600; background-color: rgb(10, 10, 10);&quot;&gt;S&lt;/span&gt;&lt;span style=&quot;text-align: left; scrollbar-color: var(--vscode-scrollbarSlider-background,#424242) var(--vscode-editor-background,#1e1e1e); color: rgb(216, 222, 233); font-family: &amp;quot;Segoe WPC&amp;quot;, &amp;quot;Segoe UI&amp;quot;, sans-serif; font-size: 13px; font-weight: 600; background-color: rgb(10, 10, 10);&quot;&gt;y&lt;/span&gt;&lt;span style=&quot;text-align: left; scrollbar-color: var(--vscode-scrollbarSlider-background,#424242) var(--vscode-editor-background,#1e1e1e); color: rgb(216, 222, 233); font-family: &amp;quot;Segoe WPC&amp;quot;, &amp;quot;Segoe UI&amp;quot;, sans-serif; font-size: 13px; font-weight: 600; background-color: rgb(10, 10, 10);&quot;&gt;stem.&lt;/span&gt;&lt;span style=&quot;text-align: left; scrollbar-color: var(--vscode-scrollbarSlider-background,#424242) var(--vscode-editor-background,#1e1e1e); color: rgb(216, 222, 233); font-family: &amp;quot;Segoe WPC&amp;quot;, &amp;quot;Segoe UI&amp;quot;, sans-serif; font-size: 13px; font-weight: 600; background-color: rgb(10, 10, 10);&quot;&gt;Obje&lt;/span&gt;&lt;span style=&quot;text-align: left; scrollbar-color: var(--vscode-scrollbarSlider-background,#424242) var(--vscode-editor-background,#1e1e1e); color: rgb(216, 222, 233); font-family: &amp;quot;Segoe WPC&amp;quot;, &amp;quot;Segoe UI&amp;quot;, sans-serif; font-size: 13px; font-weight: 600; background-color: rgb(10, 10, 10);&quot;&gt;ct&lt;/span&gt;&lt;span style=&quot;text-align: left; scrollbar-color: var(--vscode-scrollbarSlider-background,#424242) var(--vscode-editor-background,#1e1e1e); color: rgb(216, 222, 233); font-family: &amp;quot;Segoe WPC&amp;quot;, &amp;quot;Segoe UI&amp;quot;, sans-serif; font-size: 13px; background-color: rgb(10, 10, 10);&quot;&gt;&lt;b&gt;所有Lplus对象的基类&lt;/b&gt;&lt;/span&gt;&lt;/p&gt;&lt;hr size=&quot;1&quot; style=&quot;border-style:solid;&quot;&gt;&lt;p style=&quot;margin:0px;margin-left:4px;&quot;&gt;+ field: Type&lt;/p&gt;&lt;hr size=&quot;1&quot; style=&quot;border-style:solid;&quot;&gt;&lt;p style=&quot;margin:0px;margin-left:4px;&quot;&gt;+ method(): Type&lt;/p&gt;" style="verticalAlign=top;align=left;overflow=fill;html=1;whiteSpace=wrap;" vertex="1" parent="1">
          <mxGeometry x="350" y="360" width="300" height="130" as="geometry" />
        </mxCell>
      </root>
    </mxGraphModel>
  </diagram>
</mxfile>
